<svg xmlns="http://www.w3.org/2000/svg" viewBox="0 0 88 96">
  <defs>
    <style>
      .cls-1 {
        fill: #ccc;
      }

      .cls-2 {
        fill: #bbb;
      }

      .cls-3, .cls-6, .cls-7 {
        fill: none;
        stroke-miterlimit: 10;
      }

      .cls-3 {
        stroke: #666;
      }

      .cls-4 {
        fill: gray;
      }

      .cls-5 {
        fill: #666;
      }

      .cls-6 {
        stroke: #4d4d4d;
      }

      .cls-7 {
        stroke: #eee;
      }
    </style>
  </defs>
  <g id="Layer_3" data-name="Layer 3">
    <g>
      <g>
        <path class="cls-1" d="M16.68,32.14H71.32a2.5,2.5,0,0,1,2.5,2.5V69.79a0,0,0,0,1,0,0H14.18a0,0,0,0,1,0,0V34.64a2.5,2.5,0,0,1,2.5-2.5Z"/>
        <path class="cls-2" d="M73.82,69.79H44V32H71.19a2.63,2.63,0,0,1,2.63,2.63Z"/>
        <path class="cls-3" d="M16.68,32.14H71.32a2.5,2.5,0,0,1,2.5,2.5V69.79a0,0,0,0,1,0,0H14.18a0,0,0,0,1,0,0V34.64a2.5,2.5,0,0,1,2.5-2.5Z"/>
        <path class="cls-4" d="M82.8,86.75H5.2a2.12,2.12,0,0,1-1.49-3.7L14.18,69.79H73.82L84.29,83.05A2.12,2.12,0,0,1,82.8,86.75Z"/>
        <path class="cls-5" d="M82.8,86.75H44v-17H73.82L84.29,83.05A2.12,2.12,0,0,1,82.8,86.75Z"/>
        <path class="cls-6" d="M82.8,86.75H5.2a2.12,2.12,0,0,1-1.49-3.7L14.18,69.79H73.82L84.29,83.05A2.12,2.12,0,0,1,82.8,86.75Z"/>
        <polygon class="cls-6" points="78.35 82.08 72 73.61 15.99 73.61 9.65 82.08 78.35 82.08"/>
        <line class="cls-6" x1="75.01" y1="77.84" x2="12.99" y2="77.84"/>
        <g>
          <line class="cls-6" x1="44" y1="73.61" x2="44" y2="82.05"/>
          <line class="cls-6" x1="38.38" y1="73.67" x2="36.92" y2="81.98"/>
          <line class="cls-6" x1="32.85" y1="73.61" x2="29.76" y2="82.08"/>
          <line class="cls-6" x1="27.47" y1="73.48" x2="22.44" y2="82.2"/>
          <line class="cls-6" x1="22.16" y1="73.61" x2="16.15" y2="82.08"/>
          <line class="cls-6" x1="49.62" y1="73.85" x2="51.08" y2="82.16"/>
          <line class="cls-6" x1="55.16" y1="73.79" x2="58.24" y2="82.26"/>
          <line class="cls-6" x1="60.53" y1="73.66" x2="65.56" y2="82.38"/>
          <line class="cls-6" x1="65.84" y1="73.79" x2="71.85" y2="82.26"/>
        </g>
      </g>
      <g>
        <circle class="cls-7" cx="44" cy="24.15" r="20.24"/>
        <ellipse class="cls-7" cx="44" cy="24.15" rx="11.81" ry="20.24"/>
        <line class="cls-7" x1="44" y1="3.91" x2="44" y2="44.14"/>
        <line class="cls-7" x1="61.87" y1="15.69" x2="26.13" y2="15.69"/>
        <line class="cls-7" x1="61.87" y1="32.14" x2="26.13" y2="32.14"/>
        <line class="cls-7" x1="23.76" y1="24.15" x2="64.24" y2="24.15"/>
      </g>
    </g>
  </g>
</svg>
