<svg xmlns="http://www.w3.org/2000/svg" viewBox="0 0 88 96">
  <defs>
    <style>
      .cls-1 {
        fill: #ccc;
      }

      .cls-2 {
        fill: #bbb;
      }

      .cls-3, .cls-5 {
        fill: none;
        stroke-miterlimit: 10;
      }

      .cls-3 {
        stroke: #666;
      }

      .cls-4 {
        fill: #4d4d4d;
      }

      .cls-5 {
        stroke: #eee;
      }
    </style>
  </defs>
  <g id="Layer_3" data-name="Layer 3">
    <g>
      <path class="cls-1" d="M20.05,20.78C27,20.78,38.47,17.05,44,10c5.34,7.25,16.62,10.78,24,10.78,0,0,.1,23.12-3.6,32.36S44,71.1,44,71.1s-16.08-9.72-20.37-18S20.05,20.78,20.05,20.78Z"/>
      <path class="cls-2" d="M44,10c5.34,7.25,16.62,10.78,24,10.78,0,0,.1,23.12-3.6,32.36S44,71.1,44,71.1Z"/>
      <path class="cls-3" d="M20.05,20.78C27,20.78,38.47,17.05,44,10c5.34,7.25,16.62,10.78,24,10.78,0,0,.1,23.12-3.6,32.36S44,71.1,44,71.1s-16.08-9.72-20.37-18S20.05,20.78,20.05,20.78Z"/>
      <polygon class="cls-4" points="41.81 49.45 32.69 40.34 35.62 37.41 41.79 43.57 55.6 29.55 58.56 32.46 41.81 49.45"/>
      <path class="cls-5" d="M57.42,88.71S56.71,78.44,57.37,76c1.14-4.19,7.4-10,8.26-10.81,1.63-1.58,4.58-.61,3.28,2a57.09,57.09,0,0,1-3.82,6.1s4.78-3.41,5.76-6.85,2.81-13,3.66-14.77,3.91-3.48,3.91,1.74-.22,11-.48,14.77c-.23,3.23-.24,3.81-2.43,6.31-2.42,2.79-6.78,6.58-8.25,8s-1.1,6.13-1.1,6.13"/>
      <path class="cls-5" d="M30.58,88.71s.71-10.27.05-12.67c-1.14-4.19-7.4-10-8.26-10.81-1.63-1.58-4.58-.61-3.28,2a57.09,57.09,0,0,0,3.82,6.1s-4.78-3.41-5.76-6.85-2.81-13-3.66-14.77-3.91-3.48-3.91,1.74.22,11,.48,14.77c.23,3.23.24,3.81,2.43,6.31,2.42,2.79,6.78,6.58,8.25,8s1.1,6.13,1.1,6.13"/>
    </g>
  </g>
</svg>
