<svg xmlns="http://www.w3.org/2000/svg" viewBox="0 0 88 96">
  <defs>
    <style>
      .cls-1, .cls-4 {
        fill: none;
        stroke-miterlimit: 10;
      }

      .cls-1 {
        stroke: #eee;
      }

      .cls-2 {
        fill: #ccc;
      }

      .cls-3 {
        fill: #bbb;
      }

      .cls-4 {
        stroke: #666;
      }

      .cls-5 {
        fill: gray;
      }
    </style>
  </defs>
  <g id="Layer_3" data-name="Layer 3">
    <g>
      <line class="cls-1" x1="44.32" y1="4.68" x2="44.32" y2="80.32"/>
      <polyline class="cls-1" points="20.99 90.16 30.94 90.16 30.94 13.52 8.99 13.52"/>
      <polyline class="cls-1" points="80.32 86.48 57.69 86.48 57.69 17.84 69.32 17.84"/>
      <path class="cls-2" d="M67.26,48.78S69,42.89,69,39.27a16.1,16.1,0,0,0-31.84-3.36c-.43,0-.87-.07-1.31-.07A11.73,11.73,0,0,0,24.1,47.57c0,.64.06,1.27.06,1.27s-2.18-.06-3.42-.06a9.74,9.74,0,1,0,0,19.48H67.26a9.74,9.74,0,1,0,0-19.48Z"/>
      <path class="cls-3" d="M67.26,48.78S69,42.89,69,39.27A16.09,16.09,0,0,0,44,25.85V68.26H67.26a9.74,9.74,0,1,0,0-19.48Z"/>
      <path class="cls-4" d="M67.26,48.78S69,42.89,69,39.27a16.1,16.1,0,0,0-31.84-3.36c-.43,0-.87-.07-1.31-.07A11.73,11.73,0,0,0,24.1,47.57c0,.64.06,1.27.06,1.27s-2.18-.06-3.42-.06a9.74,9.74,0,1,0,0,19.48H67.26a9.74,9.74,0,1,0,0-19.48Z"/>
      <circle class="cls-5" cx="8.99" cy="13.52" r="2.84"/>
      <circle class="cls-5" cx="69.65" cy="17.84" r="2.84"/>
      <circle class="cls-5" cx="44.32" cy="4.68" r="2.84"/>
      <circle class="cls-5" cx="20.99" cy="90.16" r="2.84"/>
      <circle class="cls-5" cx="80.65" cy="86.48" r="2.84"/>
      <circle class="cls-5" cx="44.32" cy="80.32" r="2.84"/>
    </g>
  </g>
</svg>
